<?xml version="1.0" encoding="utf-8"?>
<!-- Generator: Adobe Illustrator 26.3.1, SVG Export Plug-In . SVG Version: 6.00 Build 0)  -->
<svg version="1.1" id="Layer_1" xmlns="http://www.w3.org/2000/svg" xmlns:xlink="http://www.w3.org/1999/xlink" x="0px" y="0px"
	 viewBox="0 0 36 36" style="enable-background:new 0 0 36 36;" xml:space="preserve">
<style type="text/css">
	.st0{fill:#C3EB77;}
	.st1{fill:#5287DF;}
	.st2{fill:#2F6B34;}
	.st3{fill:#3FEA73;}
	.st4{fill:#9A1F8A;}
	.st5{fill:#2B2B2B;}
</style>
<g>
	<path class="st0" d="M1.365,14.49c0.114-0.54,0.645-0.886,1.185-0.772c0.54,0.114,0.886,0.645,0.772,1.185
		c-1.337,6.35,1.56,12.84,7.18,16.085c0.476,0.279,0.636,0.892,0.357,1.368c-0.277,0.472-0.881,0.634-1.357,0.364
		C3.132,29.043-0.151,21.687,1.365,14.49z"/>
	<path class="st1" d="M13.004,34.249c-0.528-0.163-0.823-0.723-0.66-1.25s0.723-0.823,1.25-0.66
		c6.916,2.135,14.445-1.007,17.768-7.53c0.251-0.492,0.853-0.688,1.346-0.437s0.688,0.853,0.437,1.346
		C29.378,33.109,20.845,36.67,13.004,34.249z"/>
	<path class="st2" d="M34.41,22.414c-0.123,0.538-0.659,0.875-1.198,0.752c-0.538-0.123-0.875-0.659-0.752-1.198
		c0.006-0.025,0.012-0.049,0.02-0.073c0.555-2.071,0.664-4.243,0.314-6.358c-0.374-2.252-1.259-4.388-2.587-6.244
		c-0.321-0.45-0.217-1.074,0.233-1.395s1.074-0.217,1.395,0.233c1.506,2.105,2.509,4.526,2.932,7.079
		C35.163,17.609,35.042,20.066,34.41,22.414L34.41,22.414z"/>
	<path class="st3" d="M29.51,5.49c0.406,0.374,0.433,1.007,0.059,1.413s-1.007,0.433-1.413,0.059
		C26.764,5.681,25.141,4.676,23.374,4c-0.52-0.187-0.789-0.76-0.602-1.28c0.187-0.52,0.76-0.789,1.28-0.602
		c0.013,0.005,0.025,0.009,0.038,0.015C26.093,2.899,27.932,4.038,29.51,5.49z"/>
	<path class="st4" d="M20.583,1.198c0.548,0.071,0.934,0.572,0.863,1.12c-0.071,0.548-0.572,0.934-1.12,0.863
		c-0.016-0.002-0.032-0.005-0.048-0.007C13.69,2.164,7.225,5.622,4.409,11.663c-0.241,0.497-0.84,0.704-1.336,0.463
		c-0.486-0.236-0.697-0.816-0.476-1.309C5.789,3.97,13.116,0.051,20.583,1.198L20.583,1.198z"/>
	<g>
		<path class="st5" d="M9.95,21h1.735c1.852,0,3.213-1.292,3.213-3.017c0-1.726-1.36-3.018-3.213-3.018H9.95V21z M10.741,20.26
			v-4.556h0.944c1.453,0,2.413,0.97,2.413,2.279c0,1.308-0.96,2.277-2.414,2.277H10.741z M17.838,21.085
			c0.884,0,1.53-0.391,1.913-1.012l-0.578-0.399c-0.263,0.45-0.671,0.74-1.326,0.74c-0.842,0-1.445-0.596-1.47-1.395h3.485
			c0.008-0.093,0.008-0.144,0.008-0.22c-0.009-1.36-0.91-2.134-2.023-2.134c-1.292,0-2.21,0.969-2.21,2.21
			C15.637,20.125,16.521,21.085,17.838,21.085z M17.821,17.311c0.646,0,1.199,0.416,1.301,1.113h-2.694
			C16.564,17.719,17.184,17.311,17.821,17.311z M21.017,21h0.791v-2.712h2.15v-0.747h-2.15v-1.828h2.72v-0.748h-3.51L21.017,21z
			 M25.794,15.781c0.29,0,0.519-0.23,0.519-0.519c-0.001-0.286-0.232-0.517-0.518-0.518c-0.288,0-0.523,0.23-0.528,0.518
			C25.267,15.552,25.505,15.781,25.794,15.781z M25.421,21h0.73v-4.25h-0.73V21z"/>
	</g>
</g>
</svg>
