<?xml version="1.0" encoding="utf-8"?>
<!-- Generator: Adobe Illustrator 26.3.1, SVG Export Plug-In . SVG Version: 6.00 Build 0)  -->
<svg version="1.1" id="Layer_1" xmlns="http://www.w3.org/2000/svg" xmlns:xlink="http://www.w3.org/1999/xlink" x="0px" y="0px"
	 viewBox="0 0 36 36" style="enable-background:new 0 0 36 36;" xml:space="preserve">
<style type="text/css">
	.st0{fill:#51B4CB;}
	.st1{fill:#22385A;}
	.st2{fill:#E0DC0F;}
	.st3{fill:#3FEA73;}
	.st4{fill:#D71E5A;}
	.st5{fill:#2B2B2B;}
</style>
<g>
	<path class="st0" d="M1.365,14.49c0.114-0.54,0.645-0.886,1.185-0.772c0.54,0.114,0.886,0.645,0.772,1.185
		c-1.337,6.35,1.56,12.84,7.18,16.085c0.476,0.279,0.636,0.892,0.357,1.368c-0.277,0.472-0.881,0.634-1.357,0.364
		C3.132,29.043-0.151,21.687,1.365,14.49z"/>
	<path class="st1" d="M13.004,34.249c-0.528-0.163-0.823-0.723-0.66-1.25s0.723-0.823,1.25-0.66
		c6.916,2.135,14.445-1.007,17.768-7.53c0.251-0.492,0.853-0.688,1.346-0.437s0.688,0.853,0.437,1.346
		C29.378,33.109,20.845,36.67,13.004,34.249z"/>
	<path class="st2" d="M34.41,22.414c-0.123,0.538-0.659,0.875-1.198,0.752c-0.538-0.123-0.875-0.659-0.752-1.198
		c0.006-0.025,0.012-0.049,0.02-0.073c0.555-2.071,0.664-4.243,0.314-6.358c-0.374-2.252-1.259-4.388-2.587-6.244
		c-0.321-0.45-0.217-1.074,0.233-1.395s1.074-0.217,1.395,0.233c1.506,2.105,2.509,4.526,2.932,7.079
		C35.163,17.609,35.042,20.066,34.41,22.414L34.41,22.414z"/>
	<path class="st3" d="M29.51,5.49c0.406,0.374,0.433,1.007,0.059,1.413s-1.007,0.433-1.413,0.059
		C26.764,5.681,25.141,4.676,23.374,4c-0.52-0.187-0.789-0.76-0.602-1.28c0.187-0.52,0.76-0.789,1.28-0.602
		c0.013,0.005,0.025,0.009,0.038,0.015C26.093,2.899,27.932,4.038,29.51,5.49z"/>
	<path class="st4" d="M20.583,1.198c0.548,0.071,0.934,0.572,0.863,1.12c-0.071,0.548-0.572,0.934-1.12,0.863
		c-0.016-0.002-0.032-0.005-0.048-0.007C13.69,2.164,7.225,5.622,4.409,11.663c-0.241,0.497-0.84,0.704-1.336,0.463
		c-0.486-0.236-0.697-0.816-0.476-1.309C5.789,3.97,13.116,0.051,20.583,1.198L20.583,1.198z"/>
	<g>
		<path class="st5" d="M8.857,21.102c1.13,0,1.93-0.646,1.93-1.675c0-0.892-0.51-1.402-1.412-1.742l-0.722-0.28
			c-0.62-0.23-0.91-0.46-0.91-0.97c0-0.501,0.493-0.832,1.088-0.832c0.519,0,0.884,0.229,1.199,0.594l0.57-0.51
			c-0.366-0.484-0.995-0.824-1.752-0.824c-1.08,0-1.895,0.62-1.895,1.607c0,0.824,0.433,1.317,1.377,1.666l0.799,0.305
			c0.56,0.213,0.867,0.536,0.867,1.02c0,0.562-0.493,0.902-1.122,0.902c-0.672,0-1.165-0.315-1.496-0.825l-0.63,0.476
			C7.055,20.634,7.871,21.102,8.857,21.102z M17.314,21h0.731v-2.61c0-1.037-0.586-1.725-1.59-1.725
			c-0.535,0-1.087,0.204-1.427,0.697c-0.257-0.439-0.732-0.706-1.241-0.697c-0.45,0-0.927,0.162-1.216,0.535v-0.45h-0.73V21h0.73
			v-2.916c0.162-0.442,0.544-0.747,1.046-0.747c0.595,0,0.96,0.45,0.96,1.172V21h0.731v-2.61c0-0.076-0.008-0.144-0.017-0.22
			c0.153-0.494,0.527-0.834,1.054-0.834c0.604,0,0.97,0.451,0.97,1.174L17.314,21L17.314,21z M21.173,21.085
			c0.553,0,1.046-0.187,1.386-0.553V21h0.73v-4.25h-0.73v0.468c-0.34-0.366-0.833-0.553-1.386-0.553
			c-1.266,0-2.142,1.003-2.142,2.21S19.907,21.085,21.173,21.085z M21.233,20.413c-0.859,0-1.445-0.688-1.445-1.538
			s0.586-1.538,1.445-1.538c0.629,0,1.08,0.305,1.326,0.697v1.674C22.312,20.108,21.862,20.414,21.233,20.413L21.233,20.413z
			 M24.667,21h0.73v-2.754c0.17-0.527,0.638-0.816,1.063-0.816c0.12,0,0.247,0.008,0.366,0.051l0.093-0.731
			c-0.123-0.029-0.248-0.043-0.374-0.043c-0.51,0-0.977,0.323-1.147,0.672V16.75h-0.731C24.667,16.75,24.667,21,24.667,21z
			 M29.537,21.043c0.434,0,0.74-0.111,0.918-0.196l-0.22-0.62c-0.186,0.109-0.398,0.164-0.613,0.161c-0.382,0-0.68-0.196-0.68-0.74
			v-2.227h1.318V16.75h-1.318v-1.207h-0.73v1.207H27.14v0.671h1.071v2.321C28.211,20.626,28.823,21.042,29.537,21.043L29.537,21.043
			z"/>
	</g>
</g>
</svg>
