<?xml version="1.0" encoding="utf-8"?>
<!-- Generator: Adobe Illustrator 26.3.1, SVG Export Plug-In . SVG Version: 6.00 Build 0)  -->
<svg version="1.1" id="Layer_1" xmlns="http://www.w3.org/2000/svg" xmlns:xlink="http://www.w3.org/1999/xlink" x="0px" y="0px"
	 viewBox="0 0 36 36" style="enable-background:new 0 0 36 36;" xml:space="preserve">
<style type="text/css">
	.st0{fill:#FCA17E;}
	.st1{fill:#2A6EDB;}
	.st2{fill:#23582A;}
	.st3{fill:#3FEA73;}
	.st4{fill:#53D7E3;}
	.st5{fill:#2B2B2B;}
</style>
<g>
	<path class="st0" d="M1.365,14.49c0.114-0.54,0.645-0.886,1.185-0.772c0.54,0.114,0.886,0.645,0.772,1.185
		c-1.337,6.35,1.56,12.84,7.18,16.085c0.476,0.279,0.636,0.892,0.357,1.368c-0.277,0.472-0.881,0.634-1.357,0.364
		C3.132,29.043-0.151,21.687,1.365,14.49z"/>
	<path class="st1" d="M13.004,34.249c-0.528-0.163-0.823-0.723-0.66-1.25s0.723-0.823,1.25-0.66
		c6.916,2.135,14.445-1.007,17.768-7.53c0.251-0.492,0.853-0.688,1.346-0.437s0.688,0.853,0.437,1.346
		C29.378,33.109,20.845,36.67,13.004,34.249z"/>
	<path class="st2" d="M34.41,22.414c-0.123,0.538-0.659,0.875-1.198,0.752c-0.538-0.123-0.875-0.659-0.752-1.198
		c0.006-0.025,0.012-0.049,0.02-0.073c0.555-2.071,0.664-4.243,0.314-6.358c-0.374-2.252-1.259-4.388-2.587-6.244
		c-0.321-0.45-0.217-1.074,0.233-1.395s1.074-0.217,1.395,0.233c1.506,2.105,2.509,4.526,2.932,7.079
		C35.163,17.609,35.042,20.066,34.41,22.414L34.41,22.414z"/>
	<path class="st3" d="M29.51,5.49c0.406,0.374,0.433,1.007,0.059,1.413s-1.007,0.433-1.413,0.059
		C26.764,5.681,25.141,4.676,23.374,4c-0.52-0.187-0.789-0.76-0.602-1.28c0.187-0.52,0.76-0.789,1.28-0.602
		c0.013,0.005,0.025,0.009,0.038,0.015C26.093,2.899,27.932,4.038,29.51,5.49z"/>
	<path class="st4" d="M20.583,1.198c0.548,0.071,0.934,0.572,0.863,1.12c-0.071,0.548-0.572,0.934-1.12,0.863
		c-0.016-0.002-0.032-0.005-0.048-0.007C13.69,2.164,7.225,5.622,4.409,11.663c-0.241,0.497-0.84,0.704-1.336,0.463
		c-0.486-0.236-0.697-0.816-0.476-1.309C5.789,3.97,13.116,0.051,20.583,1.198L20.583,1.198z"/>
	<g>
		<path class="st5" d="M9.22,21h0.79v-6.035H9.22V21z M11.498,21h0.73v-2.822c0.17-0.493,0.579-0.841,1.174-0.841
			c0.654,0,1.062,0.424,1.062,1.164V21h0.723v-2.61c0-1.062-0.655-1.725-1.615-1.725c-0.536,0-1.046,0.195-1.343,0.62V16.75h-0.731
			V21z M16.955,21h0.73v-3.578h1.446V16.75h-1.445v-0.578c0-0.459,0.238-0.757,0.671-0.757c0.238,0,0.45,0.094,0.578,0.154
			l0.272-0.613c-0.272-0.145-0.576-0.218-0.884-0.212c-0.841,0-1.368,0.553-1.368,1.386v0.62h-1.003v0.672h1.003
			C16.955,17.422,16.955,21,16.955,21z M19.913,21h0.73v-2.754c0.17-0.527,0.638-0.816,1.063-0.816c0.119,0,0.247,0.009,0.366,0.051
			l0.093-0.731c-0.123-0.029-0.248-0.043-0.374-0.043c-0.51,0-0.977,0.323-1.147,0.672V16.75h-0.731
			C19.913,16.75,19.913,21,19.913,21z M24.775,21.085c0.552,0,1.045-0.187,1.385-0.553V21h0.731v-4.25H26.16v0.468
			c-0.34-0.366-0.833-0.553-1.385-0.553c-1.267,0-2.142,1.003-2.142,2.21S23.508,21.085,24.775,21.085z M24.834,20.413
			c-0.858,0-1.445-0.688-1.445-1.538s0.587-1.538,1.445-1.538c0.629,0,1.08,0.305,1.326,0.697v1.674
			C25.913,20.108,25.463,20.414,24.834,20.413L24.834,20.413z"/>
	</g>
</g>
</svg>
