<?xml version="1.0" encoding="utf-8"?>
<!-- Generator: Adobe Illustrator 26.3.1, SVG Export Plug-In . SVG Version: 6.00 Build 0)  -->
<svg version="1.1" id="Layer_1" xmlns="http://www.w3.org/2000/svg" xmlns:xlink="http://www.w3.org/1999/xlink" x="0px" y="0px"
	 viewBox="0 0 36 36" style="enable-background:new 0 0 36 36;" xml:space="preserve">
<style type="text/css">
	.st0{fill:#F1A208;}
	.st1{fill:#0D67AA;}
	.st2{fill:#24448B;}
	.st3{fill:#3FEA73;}
	.st4{fill:#D5C67A;}
	.st5{fill:#2B2B2B;}
</style>
<g>
	<path class="st0" d="M1.365,14.49c0.114-0.54,0.645-0.886,1.185-0.772c0.54,0.114,0.886,0.645,0.772,1.185
		c-1.337,6.35,1.56,12.84,7.18,16.085c0.476,0.279,0.636,0.892,0.357,1.368c-0.277,0.472-0.881,0.634-1.357,0.364
		C3.132,29.043-0.151,21.687,1.365,14.49z"/>
	<path class="st1" d="M13.004,34.249c-0.528-0.163-0.823-0.723-0.66-1.25s0.723-0.823,1.25-0.66
		c6.916,2.135,14.445-1.007,17.768-7.53c0.251-0.492,0.853-0.688,1.346-0.437s0.688,0.853,0.437,1.346
		C29.378,33.109,20.845,36.67,13.004,34.249z"/>
	<path class="st2" d="M34.41,22.414c-0.123,0.538-0.659,0.875-1.198,0.752c-0.538-0.123-0.875-0.659-0.752-1.198
		c0.006-0.025,0.012-0.049,0.02-0.073c0.555-2.071,0.664-4.243,0.314-6.358c-0.374-2.252-1.259-4.388-2.587-6.244
		c-0.321-0.45-0.217-1.074,0.233-1.395s1.074-0.217,1.395,0.233c1.506,2.105,2.509,4.526,2.932,7.079
		C35.163,17.609,35.042,20.066,34.41,22.414L34.41,22.414z"/>
	<path class="st3" d="M29.51,5.49c0.406,0.374,0.433,1.007,0.059,1.413s-1.007,0.433-1.413,0.059
		C26.764,5.681,25.141,4.676,23.374,4c-0.52-0.187-0.789-0.76-0.602-1.28c0.187-0.52,0.76-0.789,1.28-0.602
		c0.013,0.005,0.025,0.009,0.038,0.015C26.093,2.899,27.932,4.038,29.51,5.49z"/>
	<path class="st4" d="M20.583,1.198c0.548,0.071,0.934,0.572,0.863,1.12c-0.071,0.548-0.572,0.934-1.12,0.863
		c-0.016-0.002-0.032-0.005-0.048-0.007C13.69,2.164,7.225,5.622,4.409,11.663c-0.241,0.497-0.84,0.704-1.336,0.463
		c-0.486-0.236-0.697-0.816-0.476-1.309C5.789,3.97,13.116,0.051,20.583,1.198L20.583,1.198z"/>
	<g>
		<path class="st5" d="M7.753,21h2.16c1.223,0,2.022-0.757,2.022-1.76c0-0.807-0.459-1.232-1.045-1.444
			c0.382-0.238,0.646-0.638,0.646-1.233c0-0.85-0.68-1.598-1.802-1.598h-1.98V21H7.753z M8.543,17.558v-1.879h1.19
			c0.647,0,1.03,0.434,1.03,0.943c0,0.536-0.383,0.936-1.03,0.936C9.733,17.558,8.543,17.558,8.543,17.558z M8.543,20.286v-2.049
			h1.412c0.799,0,1.207,0.443,1.207,1.029c0,0.595-0.408,1.02-1.216,1.02H8.543L8.543,20.286z M15.803,21.102
			c1.147,0,2.125-0.57,2.669-1.462l-0.663-0.4c-0.423,0.701-1.187,1.125-2.006,1.114c-1.318,0-2.32-1.046-2.32-2.372
			c0-1.325,1.002-2.371,2.32-2.371c0.884,0,1.59,0.442,2.006,1.113l0.663-0.399c-0.544-0.893-1.522-1.462-2.67-1.462
			c-1.709-0.013-3.106,1.362-3.119,3.071c0,0.016,0,0.033,0,0.049c-0.013,1.709,1.362,3.106,3.071,3.119
			C15.77,21.102,15.787,21.102,15.803,21.102z M19.517,21h0.79v-6.035h-0.79V21z M22.22,21h0.731v-6.035h-1.564v0.723h0.833
			L22.22,21z M26.394,21.085c1.24,0,2.142-0.927,2.142-2.27v-1.683c0-1.334-0.901-2.269-2.142-2.269s-2.134,0.935-2.134,2.27v1.683
			C24.26,20.159,25.153,21.085,26.394,21.085z M26.394,20.371c-0.816,0-1.403-0.578-1.403-1.555v-1.683
			c0-0.978,0.587-1.556,1.403-1.556c0.824,0,1.41,0.578,1.41,1.556v1.683C27.804,19.793,27.218,20.371,26.394,20.371z"/>
	</g>
</g>
</svg>
