<?xml version="1.0" encoding="UTF-8"?><svg id="Layer_1" xmlns="http://www.w3.org/2000/svg" viewBox="0 0 36 36"><defs><style>.cls-1{fill:#f79797;}.cls-2{fill:#fff;}.cls-3{fill:#ff6bdb;}.cls-4{fill:#a31bb7;}.cls-5{fill:#3fea73;}.cls-6{fill:#276eb6;}</style></defs><path class="cls-2" d="M18,0C20.84,0,23.52,.66,25.91,1.83c5.98,2.93,10.09,9.07,10.09,16.17,0,9.94-8.06,18-18,18S0,27.95,0,18,8.06,0,18,0Z"/><path class="cls-3" d="M1.36,14.49c.03-.13,.08-.25,.15-.36,.07-.11,.17-.2,.28-.27,.11-.07,.23-.12,.36-.15,.13-.02,.26-.02,.39,0,.13,.03,.25,.08,.36,.15s.2,.17,.27,.28c.07,.11,.12,.23,.15,.36s.02,.26,0,.39c-.65,3.1-.31,6.32,.98,9.21s3.46,5.3,6.2,6.88c.23,.13,.39,.35,.46,.61s.03,.53-.1,.76-.35,.4-.6,.47-.53,.03-.76-.1c-3.11-1.79-5.56-4.52-7.03-7.8-1.46-3.27-1.85-6.93-1.11-10.43Z"/><path class="cls-1" d="M13,34.25c-.25-.08-.47-.25-.59-.49-.12-.23-.15-.51-.07-.76s.25-.47,.49-.59c.23-.12,.51-.15,.76-.07,6.92,2.13,14.44-1.01,17.77-7.53,.06-.12,.14-.22,.24-.31s.22-.15,.34-.19,.26-.06,.39-.05,.26,.05,.38,.11,.22,.14,.31,.24,.15,.22,.19,.34c.04,.12,.06,.26,.05,.39,0,.13-.05,.26-.11,.38-3.77,7.39-12.3,10.95-20.14,8.53h-.01Z"/><path class="cls-4" d="M34.41,22.42c-.03,.13-.09,.25-.17,.36s-.18,.2-.29,.27c-.12,.07-.24,.11-.38,.13-.13,.02-.27,.01-.4-.02s-.25-.1-.36-.18-.19-.19-.26-.3-.11-.25-.12-.38,0-.27,.04-.4c.56-2.07,.66-4.24,.31-6.36-.37-2.25-1.26-4.39-2.59-6.24-.08-.11-.13-.23-.16-.36s-.03-.26-.01-.39,.07-.25,.14-.36,.16-.21,.27-.28c.11-.08,.23-.13,.36-.16,.13-.03,.26-.03,.39-.01,.13,.02,.25,.07,.36,.14,.11,.07,.21,.16,.28,.27,1.51,2.1,2.51,4.53,2.93,7.08,.4,2.4,.27,4.86-.36,7.2h.02Z"/><path class="cls-5" d="M29.51,5.49c.2,.18,.31,.43,.32,.69,.01,.26-.08,.52-.26,.72-.18,.2-.43,.31-.69,.32-.27,.01-.52-.08-.72-.26-1.39-1.28-3.01-2.29-4.78-2.96-.13-.05-.24-.11-.34-.2-.1-.09-.18-.2-.23-.32-.06-.12-.09-.25-.09-.38s.02-.27,.07-.39,.12-.24,.21-.33c.09-.1,.2-.17,.32-.23,.12-.05,.25-.08,.39-.08,.13,0,.27,.02,.39,.07,2,.77,3.84,1.91,5.42,3.36h0Z"/><path class="cls-6" d="M20.58,1.2c.13,.02,.26,.06,.38,.13,.12,.07,.22,.16,.3,.26,.08,.11,.14,.23,.17,.36,.03,.13,.04,.26,.02,.4-.02,.13-.07,.26-.14,.37s-.16,.21-.27,.29-.23,.13-.36,.16c-.13,.03-.26,.03-.4,0-3.21-.49-6.49,.07-9.35,1.6-2.86,1.53-5.15,3.95-6.52,6.89-.11,.24-.32,.42-.57,.51-.25,.09-.52,.07-.76-.04s-.42-.31-.51-.56-.08-.52,.02-.76c1.55-3.33,4.15-6.07,7.39-7.81,3.24-1.73,6.96-2.37,10.6-1.81h0Z"/><path d="M7.08,21h.79v-4.51l1.9,2.99h.56l1.9-2.98v4.5h.78v-6.03h-.72l-2.24,3.54-2.24-3.54h-.72v6.03h0Z"/><path d="M16.12,21.09c.88,0,1.53-.39,1.91-1.01l-.58-.4c-.26,.45-.67,.74-1.33,.74-.84,0-1.44-.59-1.47-1.39h3.49v-.22c0-1.36-.91-2.13-2.02-2.13-1.29,0-2.21,.97-2.21,2.21s.88,2.21,2.2,2.21h.01Zm-.02-3.78c.65,0,1.2,.42,1.3,1.11h-2.69c.14-.71,.76-1.11,1.39-1.11Z"/><path d="M20.83,21.09c.55,0,1.05-.19,1.39-.55v.47h.73v-6.2h-.73v2.42c-.34-.37-.83-.55-1.39-.55-1.27,0-2.14,1-2.14,2.21s.88,2.21,2.14,2.21h0Zm.06-.68c-.86,0-1.44-.69-1.44-1.54s.59-1.54,1.44-1.54c.63,0,1.08,.31,1.33,.7v1.67c-.25,.4-.7,.71-1.33,.71Z"/><path d="M24.53,15.78c.29,0,.52-.23,.52-.52s-.23-.52-.52-.52-.53,.24-.53,.52,.24,.52,.53,.52Zm-.37,5.22h.73v-4.25h-.73v4.25Z"/><path d="M27.91,21.09c.55,0,1.05-.19,1.39-.55v.47h.73v-4.25h-.73v.47c-.34-.37-.83-.55-1.39-.55-1.27,0-2.14,1-2.14,2.21s.88,2.21,2.14,2.21h0Zm.06-.68c-.86,0-1.44-.69-1.44-1.54s.59-1.54,1.44-1.54c.63,0,1.08,.31,1.33,.7v1.67c-.25,.4-.7,.71-1.33,.71Z"/></svg>