<!-- Generated by IcoMoon.io -->
<svg version="1.1" xmlns="http://www.w3.org/2000/svg" width="32" height="32" viewBox="0 0 32 32">
<title>asset-btc</title>
<path fill="#f7931a" d="M16 0c-8.836 0-16 7.163-16 16s7.163 16 16 16c8.837 0 16-7.163 16-16s-7.163-16-16-16zM20.715 23.463c-1.364 0.494-2.631 0.307-3.194 0.233-0.277-0.037-0.747-0.122-1.247-0.226l-0.829 3.096-1.906-0.511 0.816-3.046-1.451-0.389-0.816 3.046-1.906-0.511 0.816-3.047-3.75-1.005 1.005-2.184 1.14 0.305c0.383 0.103 0.553 0.11 0.754 0.002s0.299-0.33 0.348-0.518l2.114-7.886c0.132-0.494 0.128-0.639-0.031-0.953s-0.684-0.492-0.985-0.572l-1.101-0.295 0.53-1.979 3.749 1.005 0.819-3.055 1.906 0.511-0.819 3.055 1.452 0.389 0.819-3.055 1.906 0.511-0.828 3.091c1.398 0.469 2.383 1.023 3.123 1.953 0.957 1.201 0.484 2.716 0.36 3.075-0.125 0.358-0.474 1.018-0.916 1.386s-1.348 0.613-1.348 0.613 0.873 0.444 1.393 1.108c0.518 0.664 0.768 1.657 0.402 2.914-0.365 1.258-0.96 2.445-2.323 2.938zM18.725 17.89c-0.308-0.273-1.037-0.726-1.963-1.041s-2.155-0.578-2.155-0.578l-1.095 4.087s1.257 0.366 2.12 0.53c0.863 0.165 1.793 0.185 2.293 0.061s1.127-0.357 1.377-1.291c0.251-0.936-0.268-1.494-0.576-1.768zM16.7 14.799c0.702 0.16 1.484 0.197 2.096 0.046s1.040-0.533 1.209-1.232c0.168-0.7-0.137-1.411-0.857-1.862-0.72-0.45-1.24-0.609-1.834-0.777-0.303-0.090-0.712-0.186-1.127-0.264l-0.087-0.013-0.986 3.678s0.883 0.265 1.585 0.425z"></path>
</svg>
