<!-- Generated by IcoMoon.io -->
<svg version="1.1" xmlns="http://www.w3.org/2000/svg" width="32" height="32" viewBox="0 0 32 32">
<title>asset-best</title>
<path fill="#e83355" d="M16 32c-8.837 0-16-7.163-16-16s7.163-16 16-16 16 7.163 16 16-7.163 16-16 16zM17.879 24.168c3.587 0 5.996-2.188 5.983-5.42 0-1.184-0.374-2.271-1.039-3.051l0.014-0.014c0.665-0.78 1.038-1.867 1.038-3.037 0-3.246-2.409-5.434-5.996-5.434h-5.041l-0.997 5.699h-3.642l-0.346 1.937h3.642l-0.291 1.686h-3.642l-0.346 1.937h3.642l-0.998 5.685 8.019 0.014zM12.16 22.203l0.665-3.734h2.16c3.684 0 5.539-0.153 6.744-0.892 0.139 0.334 0.208 0.738 0.208 1.156 0 2.146-1.551 3.483-4.057 3.483l-5.72-0.014zM13.157 16.518l0.305-1.672h1.523c4.085 0 5.165 0.251 6.024 0.836-0.651 0.641-2.063 0.836-6.024 0.836h-1.828zM13.794 12.895l0.665-3.762h3.421c2.534 0 4.057 1.296 4.057 3.483 0 0.446-0.069 0.864-0.221 1.212-1.288-0.725-2.908-0.933-6.73-0.933h-1.191z"></path>
</svg>
