<?xml version="1.0" encoding="UTF-8"?>
<svg width="36px" height="38px" viewBox="0 0 36 38" version="1.1" xmlns="http://www.w3.org/2000/svg" xmlns:xlink="http://www.w3.org/1999/xlink">
    <title>IconAssetClass/Cryptos</title>
    <g id="v2" stroke="none" stroke-width="1" fill="none" fill-rule="evenodd">
        <g id="Bitpanda-Design-System-" transform="translate(-139.000000, -7849.000000)">
            <g id="Group" transform="translate(139.000000, 7849.000000)">
                <g id="Group-5" transform="translate(0.000000, 0.513889)">
                    <ellipse id="Oval-Copy-2" fill="#F7931A" cx="18" cy="18.5" rx="18" ry="18.5"></ellipse>
                    <path d="M28.5604987,12.7951383 L28.5604987,12.7951383 C28.4284987,10.7157383 24.5476987,9.14940496 19.5340987,9.14940496 C14.5204987,9.14940496 10.6540987,10.7157383 10.5100987,12.7778716 C10.5078499,12.8214188 10.5078499,12.8650578 10.5100987,12.908605 L10.5100987,17.0205383 C8.60209871,17.7013383 7.51969871,18.6633383 7.44049871,19.7338716 C7.438046,19.7815272 7.438046,19.8292827 7.44049871,19.8769383 L7.44049871,19.8769383 L7.44049871,24.0949383 C7.4381091,24.1376586 7.4381091,24.1804847 7.44049871,24.223205 C7.52689871,25.362805 8.69809871,26.3568716 10.7428987,27.0253383 L10.7644987,27.0253383 L10.7644987,27.0253383 C12.6129422,27.5950448 14.5348684,27.8728362 16.4644987,27.849205 C21.4612987,27.849205 25.3444987,26.287805 25.4884987,24.215805 L25.4884987,24.215805 C25.4884987,24.215805 25.4884987,24.193605 25.4884987,24.1837383 L25.4884987,24.0949383 L25.4884987,24.0949383 L25.4884987,19.9805383 C27.3988987,19.2972716 28.4812987,18.3352716 28.5604987,17.267205 L28.5604987,17.2474716 C28.5616215,17.2359894 28.5616215,17.2244205 28.5604987,17.2129383 L28.5604987,12.9061383 L28.5604987,12.9061383 L28.5604987,12.827205 C28.5604987,12.827205 28.5604987,12.8025383 28.5604987,12.7951383 Z M11.2348987,12.8395383 C11.3260987,11.4162716 14.6836987,9.8795383 19.5340987,9.8795383 C24.3844987,9.8795383 27.7420987,11.4039383 27.8356987,12.8395383 C27.8368568,12.8534907 27.8368568,12.8675192 27.8356987,12.8814716 C27.8356987,13.4981383 27.2332987,14.1271383 26.1388987,14.655005 C24.5284987,15.439405 22.1212987,15.8883383 19.5316987,15.8883383 C16.9420987,15.8883383 14.5348987,15.4369383 12.9244987,14.655005 C11.8324987,14.1271383 11.2300987,13.4981383 11.2300987,12.8814716 C11.2276987,12.8888716 11.2276987,12.8740716 11.2300987,12.8395383 L11.2348987,12.8395383 Z M10.6324987,17.7728716 C10.6316001,17.7818925 10.6316001,17.7909841 10.6324987,17.800005 C10.6745634,17.9020404 10.7234815,18.0009456 10.7788987,18.096005 L10.8004987,18.1280716 C10.8654252,18.231361 10.9367736,18.3302333 11.0140987,18.4240716 L11.0140987,18.4240716 C11.1011993,18.524313 11.1933243,18.6198204 11.2900987,18.710205 L11.3092987,18.7274716 C11.4076987,18.8162716 11.5156987,18.9050716 11.6308987,18.991405 L11.6740987,19.0234716 C11.7892987,19.1073383 11.9140987,19.1862716 12.0364987,19.2701383 L12.0988987,19.3071383 C12.2284987,19.383605 12.3628987,19.457605 12.5044987,19.531605 L12.5764987,19.5661383 C12.7204987,19.6376716 12.8692987,19.7067383 13.0276987,19.7733383 L13.0996987,19.805405 C13.2604987,19.872005 13.4284987,19.9361383 13.6012987,19.997805 L13.6612987,20.0175383 C13.8460987,20.0816716 14.0332987,20.1433383 14.2276987,20.2000716 L14.2444987,20.2000716 C14.4388987,20.256805 14.6404987,20.3110716 14.8468987,20.3628716 L14.8996987,20.3628716 C15.1012987,20.412205 15.3100987,20.456605 15.5212987,20.4985383 L15.6100987,20.515805 C15.8164987,20.5552716 16.0300987,20.5922716 16.2460987,20.626805 L16.3540987,20.6440716 C16.5700987,20.6761383 16.7884987,20.7032716 17.0116987,20.730405 L17.1268987,20.730405 C17.3524987,20.7550716 17.5828987,20.7772716 17.8156987,20.7945383 L17.9188987,20.7945383 C18.1588987,20.8093383 18.3988987,20.8241383 18.6508987,20.834005 L18.7204987,20.834005 C18.9820987,20.834005 19.2460987,20.834005 19.5124987,20.834005 C19.7788987,20.834005 20.0068987,20.834005 20.2516987,20.834005 L20.4916987,20.834005 C20.6524987,20.834005 20.8156987,20.819205 20.9716987,20.8068716 L21.2596987,20.7846716 L21.6892987,20.745205 L21.9916987,20.7131383 C22.1260987,20.6958716 22.2580987,20.6810716 22.3900987,20.6613383 C22.5220987,20.641605 22.5940987,20.634205 22.6948987,20.6169383 C22.7956987,20.5996716 22.9348987,20.5774716 23.0716987,20.5552716 L23.3716987,20.501005 C23.4940987,20.478805 23.6116987,20.4516716 23.7340987,20.427005 L24.0196987,20.3628716 C24.1420987,20.3357383 24.2596987,20.3036716 24.3772987,20.271605 L24.6388987,20.205005 L24.6724987,20.205005 C24.6663565,20.2251291 24.6591457,20.244892 24.6508987,20.264205 C24.6508987,20.2913383 24.6268987,20.3184716 24.6148987,20.345605 C24.5894858,20.3924653 24.5614382,20.4377643 24.5308987,20.4812716 C24.5166137,20.5078555 24.5005763,20.533404 24.4828987,20.5577383 C24.431929,20.6279228 24.3766145,20.6946609 24.3172987,20.7575383 L24.2572987,20.811805 C24.2073672,20.8642871 24.1544759,20.9137057 24.0988987,20.959805 L23.9980987,21.041205 L23.8348987,21.1645383 L23.7220987,21.241005 C23.6548987,21.285405 23.5852987,21.329805 23.5108987,21.3717383 L23.4100987,21.4309383 C23.2972987,21.4950716 23.1700987,21.559205 23.0548987,21.618405 C22.9396987,21.677605 22.7572987,21.7491383 22.6036987,21.8132716 C22.5364987,21.840405 22.4764987,21.870005 22.4068987,21.8971383 C22.1668987,21.9834716 21.9412987,22.0673383 21.6868987,22.143805 L21.6484987,22.2005383 L21.4084987,22.2720716 L21.3076987,22.3016716 L21.0676987,22.3633383 L20.9860987,22.3830716 L20.7820987,22.4274716 L20.7628987,22.4274716 C20.5948987,22.4669383 20.4196987,22.5039383 20.2348987,22.5335383 C20.0500987,22.5631383 19.8916987,22.6001383 19.7140987,22.6297383 L19.6708987,22.6297383 L19.5292987,22.6519383 C19.3828987,22.6741383 19.2364987,22.6963383 19.0972987,22.713605 L19.0468987,22.713605 L18.8956987,22.7333383 L18.7684987,22.7333383 C18.5428987,22.758005 18.3172987,22.780205 18.0892987,22.7999383 L17.6572987,22.8270716 C17.4172987,22.8270716 17.1532987,22.846805 16.8484987,22.8517383 L16.7620987,22.8517383 C16.6684987,22.8517383 16.5748987,22.8517383 16.4764987,22.8517383 C14.3164987,22.8517383 12.2716987,22.5335383 10.7164987,21.9711383 C10.4269599,21.8691506 10.1426001,21.7522471 9.86449871,21.6208716 C9.65765588,21.519999 9.45653421,21.4071741 9.26209871,21.2829383 C8.64049871,20.9055383 8.26129871,20.4738716 8.18929871,20.0323383 C8.17513783,19.9798664 8.1655006,19.9262147 8.16049871,19.872005 L8.16049871,19.8103383 C8.22289871,19.0752716 9.12049871,18.325405 10.6276987,17.7728716 L10.6324987,17.7728716 Z M16.4716987,27.109205 C14.6185066,27.1330145 12.7725786,26.866857 10.9972987,26.3198716 L10.9972987,26.3198716 L10.9756987,26.3198716 C9.27649871,25.7648716 8.22769871,24.9582716 8.17489871,24.164005 C8.17608459,24.1434675 8.17608459,24.1228758 8.17489871,24.1023383 L8.17489871,21.396405 L8.24929871,21.4605383 L8.34289871,21.544405 C8.41969871,21.611005 8.50129871,21.6751383 8.58289871,21.7392716 L8.69569871,21.8206716 C8.78689871,21.884805 8.88529871,21.9464716 8.98849871,22.0081383 L9.10129871,22.0796716 C9.23329871,22.1561383 9.37249871,22.2301383 9.52129871,22.3041383 L9.55729871,22.3238716 C9.69649871,22.3904716 9.85009871,22.4521383 9.99889871,22.513805 C11.6788987,23.2217383 14.0044987,23.6262716 16.4788987,23.6262716 C16.5916987,23.6262716 16.6996987,23.6262716 16.8124987,23.6262716 L16.9588987,23.6262716 L17.4388987,23.6262716 L17.6116987,23.6262716 C17.8012987,23.6262716 17.9836987,23.609005 18.1612987,23.594205 C18.4204987,23.572005 18.7060987,23.5448716 18.9724987,23.512805 L19.1356987,23.4955383 L19.1812987,23.4955383 L19.6180987,23.431405 L19.7932987,23.4042716 L19.8052987,23.4042716 C19.9924987,23.3746716 20.1796987,23.342605 20.3692987,23.3031383 C20.5588987,23.2636716 20.7388987,23.2340716 20.8924987,23.1970716 L20.9476987,23.1847383 L20.9788987,23.1847383 C21.1372987,23.1526716 21.2884987,23.113205 21.4300987,23.0737383 L21.4996987,23.0564716 C21.6556987,23.017005 21.8044987,22.972605 21.9436987,22.928205 C22.2076987,22.846805 22.4620987,22.758005 22.7092987,22.6642716 C22.8172987,22.6223383 22.9132987,22.5754716 23.0188987,22.5310716 C23.1244987,22.4866716 23.2828987,22.4225383 23.4076987,22.3633383 L23.4436987,22.343605 C23.5908987,22.2728939 23.7300987,22.1988939 23.8612987,22.121605 L23.9764987,22.0525383 C24.0772987,21.988405 24.1756987,21.9267383 24.2692987,21.862605 L24.3796987,21.781205 C24.4660987,21.7170716 24.5476987,21.6529383 24.6196987,21.5863383 L24.7156987,21.5024716 C24.7372987,21.4802716 24.7660987,21.4605383 24.7876987,21.4383383 L24.7876987,24.0924716 L24.7876987,24.0924716 L24.7876987,24.119605 L24.7876987,24.119605 C24.7876987,24.119605 24.7876987,24.1442716 24.7876987,24.156605 C24.6772987,25.5823383 21.3220987,27.109205 16.4716987,27.109205 Z M25.0108987,19.3515383 C23.2332768,19.8993522 21.3849756,20.1663335 19.5292987,20.1433383 C15.0724987,20.1433383 11.8324987,18.828605 11.3020987,17.4867383 C11.2710103,17.4076345 11.2500353,17.3247207 11.2396987,17.2400716 C11.2396987,17.2400716 11.2396987,17.2400716 11.2396987,17.2400716 C11.2407163,17.2327086 11.2407163,17.2252347 11.2396987,17.2178716 C11.2409565,17.2022762 11.2409565,17.1866004 11.2396987,17.171005 L11.2396987,14.4305383 L11.3044987,14.4897383 C11.3404987,14.521805 11.3788987,14.5563383 11.4196987,14.588405 C11.4604987,14.6204716 11.5612987,14.706805 11.6380987,14.7635383 L11.7700987,14.8597383 C11.8564987,14.9189383 11.9476987,14.9781383 12.0412987,15.0348716 C12.0844987,15.062005 12.1252987,15.0891383 12.1708987,15.113805 C12.3124987,15.195205 12.4612987,15.276605 12.6220987,15.3604716 C14.3260987,16.1917383 16.8484987,16.667805 19.5412987,16.667805 C22.2340987,16.667805 24.7564987,16.1917383 26.4604987,15.3604716 C26.6188987,15.284005 26.7700987,15.2050716 26.9116987,15.113805 C26.9572987,15.0891383 26.9980987,15.062005 27.0436987,15.0348716 C27.1372987,14.9781383 27.2260987,14.9189383 27.3124987,14.8597383 L27.4468987,14.7635383 C27.5236987,14.706805 27.5932987,14.6500716 27.6628987,14.5908716 L27.7804987,14.4872716 C27.7996987,14.4675383 27.8236987,14.4502716 27.8452987,14.4305383 L27.8452987,17.1290716 L27.8452987,17.1882716 C27.7756987,17.9825383 26.7220987,18.791605 25.0108987,19.3515383 Z" id="Shape" stroke="#FFFFFF" stroke-width="0.5" fill="#FFFFFF" fill-rule="nonzero"></path>
                </g>
            </g>
        </g>
    </g>
</svg>