<?xml version="1.0" encoding="UTF-8"?>
<svg width="36" height="36" xmlns="http://www.w3.org/2000/svg"><g fill="none"><path d="M18 0c2.837 0 5.52.656 7.907 1.825C31.884 4.753 36 10.895 36 18c0 9.942-8.058 18-18 18-9.94 0-18-8.057-18-18C0 8.06 8.06 0 18 0z" fill="#F2F4F7"/><path d="M19.643 7.042v9.387h9.387v1.633c0 6.085-4.934 11.019-11.02 11.019-6.085 0-11.019-4.934-11.019-11.02 0-6.085 4.934-11.019 11.02-11.019h1.632zm1.887 7.5V5.155l.421.016.354.02.152.012.255.025a9.391 9.391 0 0 1 8.136 8.169l.024.246.021.311.017.376.007.212H21.53z" fill="#DD4D4D"/></g></svg>