<?xml version="1.0" encoding="UTF-8"?>
<svg xmlns="http://www.w3.org/2000/svg" width="32" height="32" viewBox="0 0 32 32">
  <g id="Group_32" data-name="Group 32" transform="translate(-612 -218)">
    <rect id="Rectangle_9" data-name="Rectangle 9" width="32" height="32" rx="8" transform="translate(612 218)" fill="#383838"/>
    <g id="Group_29" data-name="Group 29" transform="translate(508.899 158.266)">
      <path id="Path_31" data-name="Path 31" d="M178.9,119.7h0l-.3.094v1.121a1.308,1.308,0,0,1-.9,1.24l-3.063.966v1.662l4.025-1.269a2.174,2.174,0,0,0,1.525-2.2v-.744A.986.986,0,0,0,178.9,119.7Z" transform="translate(-57.226 -49.507)" fill="#fff"/>
      <path id="Path_32" data-name="Path 32" d="M118.656,69.716l5.69-1.794a3.375,3.375,0,0,1,1.412-.15l-.713-.521a2.947,2.947,0,0,0-2.569-.4l-5.406,1.7Z" transform="translate(-3.384)" fill="#fff"/>
      <path id="Path_33" data-name="Path 33" d="M127.327,95.285a3.96,3.96,0,0,0,1-2.873v-.83a2.953,2.953,0,0,0-3.866-2.636l-5.646,1.78V101.2l1.585-.5V98.123l5.1-1.606a1.333,1.333,0,0,1,1.741,1.277v1.02a3.463,3.463,0,0,1-2.356,2.963l-7.814,2.463,1.585,1.162,7.039-2.219a4.365,4.365,0,0,0,3.13-4.454V97.687A2.877,2.877,0,0,0,127.327,95.285Zm-2.382-.256-4.54,1.432V91.889l4.537-1.431a1.387,1.387,0,0,1,1.8,1.243v.744A2.559,2.559,0,0,1,124.945,95.029Z" transform="translate(-3.385 -20.646)" fill="#fff"/>
      <path id="Path_34" data-name="Path 34" d="M123.461,109.371v-1.019a.941.941,0,0,0-1.227-.9l-.358.113v1.411a1.579,1.579,0,0,1-1.109,1.512l-5.728,1.806V101.239l-1.585-1.162v14.379l7.929-2.5A3.036,3.036,0,0,0,123.461,109.371Z" transform="translate(0 -31.204)" fill="#fff"/>
    </g>
  </g>
</svg>
