<?xml version="1.0" encoding="UTF-8"?>
<svg xmlns="http://www.w3.org/2000/svg" width="36" height="36" viewBox="0 0 36 36">
  <g id="Group_1308" data-name="Group 1308" transform="translate(-203 -343)">
    <g id="Group_1079" data-name="Group 1079" transform="translate(-409 141)">
      <g id="Group_38" data-name="Group 38" transform="translate(0 35)">
        <rect id="Rectangle" width="36" height="36" rx="18" transform="translate(612 167)" fill="#f2faf6"/>
      </g>
      <path id="Path_849" data-name="Path 849" d="M42.63,118.19l.955-5.332H40.1l.176-.967h3.488l.429-2.43H40.709l.176-.967h3.488l.955-5.344H49.8c3.18,0,5.316,1.878,5.316,4.672a4.007,4.007,0,0,1-.729,2.368l-.408.5.233.268a3.913,3.913,0,0,1,.891,2.583c.012,2.708-1.947,4.534-4.991,4.652l-.316.007Zm10.636-6.108c-.905.544-2.308.746-5.36.771l-3.3.005-.79,4.348,5.981.014c2.619,0,4.31-1.448,4.31-3.691a3.242,3.242,0,0,0-.233-1.249l-.191-.45Zm-8.5-.205h2.671l1.165-.013c2.721-.054,3.852-.278,4.485-.889l.391-.378-.641-.4c-.82-.478-1.875-.72-5.4-.736H45.217Zm.613-3.4,2.518.005c2.958.031,4.313.237,5.366.818l.4.223.188-.421a3.205,3.205,0,0,0,.249-1.31c0-2.2-1.5-3.582-4-3.685l-.3-.006H46.169Z" transform="translate(581.9 108.851)" fill="#27d17f"/>
    </g>
  </g>
</svg>
