<?xml version="1.0" encoding="UTF-8"?>
<svg xmlns="http://www.w3.org/2000/svg" width="36" height="36" viewBox="0 0 36 36">
  <g id="Group_1310" data-name="Group 1310" transform="translate(-611 -200)">
    <g id="Group_1082" data-name="Group 1082" transform="translate(406 -97)">
      <rect id="Rectangle" width="36" height="36" rx="18" transform="translate(205 297)" fill="#f2faf6"/>
      <g id="Group_1087" data-name="Group 1087" transform="translate(374.595 25.304)">
        <path id="Path_844" data-name="Path 844" d="M-152.3,282.973a7.659,7.659,0,0,1,7.528,2.035,7.659,7.659,0,0,1-.136,10.83,7.659,7.659,0,0,1-10.83-.136,7.661,7.661,0,0,1-1.083-9.293l-2.775.966" fill="none" stroke="#27d17f" stroke-width="1"/>
        <g id="Group_1088" data-name="Group 1088" transform="translate(-166.889 269.61)">
          <path id="Path_847" data-name="Path 847" d="M13.327,20.27l.179-.487H14.1a2.967,2.967,0,0,1,.414-.932,3.218,3.218,0,0,1,.683-.739,3.129,3.129,0,0,1,.889-.486,3.068,3.068,0,0,1,1.038-.175,3.154,3.154,0,0,1,1.307.265,2.763,2.763,0,0,1,.974.709l-.777.845a2.194,2.194,0,0,0-.641-.478,2.052,2.052,0,0,0-1.457-.1,2.044,2.044,0,0,0-.508.243,1.8,1.8,0,0,0-.406.372,2.062,2.062,0,0,0-.286.474h3.033l-.162.487H15.189a1.92,1.92,0,0,0-.026.316,1.868,1.868,0,0,0,.026.308h2.777l-.162.478H15.318a2.013,2.013,0,0,0,.691.859,1.857,1.857,0,0,0,1.111.337,1.906,1.906,0,0,0,.863-.188,2.17,2.17,0,0,0,.641-.478l.777.846a2.763,2.763,0,0,1-.974.709,3.165,3.165,0,0,1-1.307.264,3.111,3.111,0,0,1-1.047-.174,3.064,3.064,0,0,1-.889-.491,3.268,3.268,0,0,1-.683-.743,2.971,2.971,0,0,1-.414-.94h-.76l.179-.478H14a1.4,1.4,0,0,1-.009-.154v-.313A1.427,1.427,0,0,1,14,20.27Z" fill="#27d17f"/>
        </g>
      </g>
    </g>
  </g>
</svg>
