<?xml version="1.0" encoding="UTF-8"?>
<svg xmlns="http://www.w3.org/2000/svg" width="36" height="36" viewBox="0 0 36 36"><g fill="none" fill-rule="evenodd"><circle cx="18" cy="18" r="17" fill="#FFF"/><path fill="#BFBFBF" d="M18 0c9.941 0 18 8.059 18 18s-8.059 18-18 18S0 27.941 0 18 8.059 0 18 0zm-3.938 18H8.439c-.47 0-.89.29-1.054.73l-1.687 4.5a1.125 1.125 0 0 0 1.053 1.52h9c.785 0 1.33-.785 1.053-1.52l-1.687-4.5a1.125 1.125 0 0 0-1.053-.73zm13.5 0h-5.625c-.468 0-.888.29-1.053.73l-1.687 4.5a1.125 1.125 0 0 0 1.053 1.52h9c.785 0 1.33-.785 1.053-1.52l-1.687-4.5a1.125 1.125 0 0 0-1.053-.73zm-6.75-9h-5.625c-.468 0-.888.29-1.053.73l-1.687 4.5a1.125 1.125 0 0 0 1.053 1.52h9c.785 0 1.33-.785 1.053-1.52l-1.687-4.5A1.125 1.125 0 0 0 20.813 9z"/></g></svg>